<?xml version="1.0" encoding="UTF-8" standalone="no"?><svg xmlns="http://www.w3.org/2000/svg" xmlns:xlink="http://www.w3.org/1999/xlink" contentScriptType="application/ecmascript" contentStyleType="text/css" height="675px" preserveAspectRatio="none" style="width:332px;height:675px;" version="1.1" viewBox="0 0 332 675" width="332px" zoomAndPan="magnify"><defs><filter height="300%" id="f4j8pzbcmwp9f" width="300%" x="-1" y="-1"><feGaussianBlur result="blurOut" stdDeviation="2.0"/><feColorMatrix in="blurOut" result="blurOut2" type="matrix" values="0 0 0 0 0 0 0 0 0 0 0 0 0 0 0 0 0 0 .4 0"/><feOffset dx="4.0" dy="4.0" in="blurOut2" result="blurOut3"/><feBlend in="SourceGraphic" in2="blurOut3" mode="normal"/></filter></defs><g><text fill="#000000" font-family="sans-serif" font-size="18" lengthAdjust="spacing" textLength="294" x="18" y="26.708">SQL-to-ARC Converter Workflow</text><ellipse cx="163" cy="40.9531" fill="#000000" filter="url(#f4j8pzbcmwp9f)" rx="10" ry="10" style="stroke:none;stroke-width:1.0;"/><rect fill="#FEFECE" filter="url(#f4j8pzbcmwp9f)" height="47.9375" rx="12.5" ry="12.5" style="stroke:#A80036;stroke-width:1.5;" width="204" x="61" y="70.9531"/><text fill="#000000" font-family="sans-serif" font-size="12" lengthAdjust="spacing" textLength="168" x="71" y="92.0918">Validate database schema</text><text fill="#000000" font-family="sans-serif" font-size="12" lengthAdjust="spacing" textLength="184" x="71" y="106.0605">(required views and columns)</text><rect fill="#FFFFFF" filter="url(#f4j8pzbcmwp9f)" height="419.6406" style="stroke:#000000;stroke-width:2.0;" width="304" x="11" y="128.8906"/><path d="M178,128.8906 L178,138.1875 L168,148.1875 L11,148.1875 " fill="none" style="stroke:#000000;stroke-width:2.0;"/><text fill="#000000" font-family="sans-serif" font-size="14" lengthAdjust="spacing" textLength="157" x="14" y="142.8857">Per investigation batch</text><rect fill="#FEFECE" filter="url(#f4j8pzbcmwp9f)" height="47.9375" rx="12.5" ry="12.5" style="stroke:#A80036;stroke-width:1.5;" width="210" x="58" y="165.1875"/><text fill="#000000" font-family="sans-serif" font-size="12" lengthAdjust="spacing" textLength="190" x="68" y="186.3262">Fetch next investigation batch</text><text fill="#000000" font-family="sans-serif" font-size="12" lengthAdjust="spacing" textLength="123" x="68" y="200.2949">(server-side cursor)</text><rect fill="#FEFECE" filter="url(#f4j8pzbcmwp9f)" height="61.9063" rx="12.5" ry="12.5" style="stroke:#A80036;stroke-width:1.5;" width="221" x="52.5" y="233.125"/><text fill="#000000" font-family="sans-serif" font-size="12" lengthAdjust="spacing" textLength="162" x="62.5" y="254.2637">Fetch related data in bulk</text><text fill="#000000" font-family="sans-serif" font-size="12" lengthAdjust="spacing" textLength="169" x="62.5" y="268.2324">(studies, assays, contacts,</text><text fill="#000000" font-family="sans-serif" font-size="12" lengthAdjust="spacing" textLength="201" x="62.5" y="282.2012">publications, annotation tables)</text><rect fill="#FFFFFF" filter="url(#f4j8pzbcmwp9f)" height="231.5" style="stroke:#000000;stroke-width:2.0;" width="284" x="21" y="305.0313"/><path d="M235,305.0313 L235,314.3281 L225,324.3281 L21,324.3281 " fill="none" style="stroke:#000000;stroke-width:2.0;"/><text fill="#000000" font-family="sans-serif" font-size="14" lengthAdjust="spacing" textLength="204" x="24" y="319.0264">Per investigation (concurrent)</text><rect fill="#FFFFFF" filter="url(#f4j8pzbcmwp9f)" height="136.2344" style="stroke:#000000;stroke-width:2.0;" width="264" x="31" y="334.3281"/><path d="M166,334.3281 L166,343.625 L156,353.625 L31,353.625 " fill="none" style="stroke:#000000;stroke-width:2.0;"/><text fill="#000000" font-family="sans-serif" font-size="14" lengthAdjust="spacing" textLength="125" x="34" y="348.3232">parallel processes</text><rect fill="#FEFECE" filter="url(#f4j8pzbcmwp9f)" height="33.9688" rx="12.5" ry="12.5" style="stroke:#A80036;stroke-width:1.5;" width="244" x="41" y="370.625"/><text fill="#000000" font-family="sans-serif" font-size="12" lengthAdjust="spacing" textLength="224" x="51" y="391.7637">Map SQL view rows to ARCtrl objects</text><rect fill="#FEFECE" filter="url(#f4j8pzbcmwp9f)" height="33.9688" rx="12.5" ry="12.5" style="stroke:#A80036;stroke-width:1.5;" width="199" x="63.5" y="424.5938"/><text fill="#000000" font-family="sans-serif" font-size="12" lengthAdjust="spacing" textLength="179" x="73.5" y="445.7324">Serialize to RO-Crate JSON-LD</text><rect fill="#FEFECE" filter="url(#f4j8pzbcmwp9f)" height="33.9688" rx="12.5" ry="12.5" style="stroke:#A80036;stroke-width:1.5;" width="251" x="37.5" y="490.5625"/><text fill="#000000" font-family="sans-serif" font-size="12" lengthAdjust="spacing" textLength="231" x="47.5" y="511.7012">Upload to Middleware API (api_client)</text><rect fill="#FEFECE" filter="url(#f4j8pzbcmwp9f)" height="47.9375" rx="12.5" ry="12.5" style="stroke:#A80036;stroke-width:1.5;" width="218" x="54" y="568.5313"/><text fill="#000000" font-family="sans-serif" font-size="12" lengthAdjust="spacing" textLength="89" x="64" y="589.6699">Output Report</text><text fill="#000000" font-family="sans-serif" font-size="12" lengthAdjust="spacing" textLength="198" x="64" y="603.6387">(JSON-LD provenance to stdout)</text><ellipse cx="163" cy="647.4688" fill="#FFFFFF" filter="url(#f4j8pzbcmwp9f)" rx="11" ry="11" style="stroke:#000000;stroke-width:1.0;"/><ellipse cx="163" cy="647.4688" fill="#000000" rx="6" ry="6" style="stroke:#7F7F7F;stroke-width:1.0;"/><line style="stroke:#A80036;stroke-width:1.5;" x1="163" x2="163" y1="50.9531" y2="70.9531"/><polygon fill="#A80036" points="159,60.9531,163,70.9531,167,60.9531,163,64.9531" style="stroke:#A80036;stroke-width:1.0;"/><line style="stroke:#A80036;stroke-width:1.5;" x1="163" x2="163" y1="213.125" y2="233.125"/><polygon fill="#A80036" points="159,223.125,163,233.125,167,223.125,163,227.125" style="stroke:#A80036;stroke-width:1.0;"/><line style="stroke:#A80036;stroke-width:1.5;" x1="163" x2="163" y1="404.5938" y2="424.5938"/><polygon fill="#A80036" points="159,414.5938,163,424.5938,167,414.5938,163,418.5938" style="stroke:#A80036;stroke-width:1.0;"/><line style="stroke:#A80036;stroke-width:1.5;" x1="163" x2="163" y1="458.5625" y2="490.5625"/><polygon fill="#A80036" points="159,480.5625,163,490.5625,167,480.5625,163,484.5625" style="stroke:#A80036;stroke-width:1.0;"/><line style="stroke:#A80036;stroke-width:1.5;" x1="163" x2="163" y1="295.0313" y2="370.625"/><polygon fill="#A80036" points="159,360.625,163,370.625,167,360.625,163,364.625" style="stroke:#A80036;stroke-width:1.0;"/><line style="stroke:#A80036;stroke-width:1.5;" x1="163" x2="163" y1="118.8906" y2="165.1875"/><polygon fill="#A80036" points="159,155.1875,163,165.1875,167,155.1875,163,159.1875" style="stroke:#A80036;stroke-width:1.0;"/><line style="stroke:#A80036;stroke-width:1.5;" x1="163" x2="163" y1="524.5313" y2="568.5313"/><polygon fill="#A80036" points="159,558.5313,163,568.5313,167,558.5313,163,562.5313" style="stroke:#A80036;stroke-width:1.0;"/><line style="stroke:#A80036;stroke-width:1.5;" x1="163" x2="163" y1="616.4688" y2="636.4688"/><polygon fill="#A80036" points="159,626.4688,163,636.4688,167,626.4688,163,630.4688" style="stroke:#A80036;stroke-width:1.0;"/><!--MD5=[56517029f0eceeb3875d8d43f8252fc9]
@startuml SqlToArc_Workflow
title SQL-to-ARC Converter Workflow
' Activity diagram aligned with the Middleware Harvester workflow:
' https://github.com/fairagro/m4.2_middleware_harvester/blob/feature/additional_docs/docs/harvester_workflow.puml

start
:Validate database schema\n(required views and columns);

partition "Per investigation batch" {
  :Fetch next investigation batch\n(server-side cursor);
  :Fetch related data in bulk\n(studies, assays, contacts,\npublications, annotation tables);

  partition "Per investigation (concurrent)" {
    partition "parallel processes" {
      :Map SQL view rows to ARCtrl objects;
      :Serialize to RO-Crate JSON-LD;
    }

    :Upload to Middleware API (api_client);
  }
}

:Output Report\n(JSON-LD provenance to stdout);

stop

@enduml

@startuml SqlToArc_Workflow
title SQL-to-ARC Converter Workflow

start
:Validate database schema\n(required views and columns);

partition "Per investigation batch" {
  :Fetch next investigation batch\n(server-side cursor);
  :Fetch related data in bulk\n(studies, assays, contacts,\npublications, annotation tables);

  partition "Per investigation (concurrent)" {
    partition "parallel processes" {
      :Map SQL view rows to ARCtrl objects;
      :Serialize to RO-Crate JSON-LD;
    }

    :Upload to Middleware API (api_client);
  }
}

:Output Report\n(JSON-LD provenance to stdout);

stop

@enduml

PlantUML version 1.2021.00(Sun Jan 10 10:25:05 UTC 2021)
(MIT source distribution)
Java Runtime: OpenJDK Runtime Environment
JVM: OpenJDK 64-Bit Server VM
Default Encoding: UTF-8
Language: en
Country: US
--></g></svg>